<svg width="55" height="55" viewBox="0 0 55 55" fill="none" xmlns="http://www.w3.org/2000/svg">
<g clip-path="url(#clip0)">
<path d="M54.3495 13.277C53.8819 12.7665 53.2166 12.4738 52.5244 12.4738H51.7899C49.864 12.4738 48.2847 13.9206 48.1163 15.8391L47.3217 24.8925C47.2514 25.6948 46.5908 26.2999 45.7853 26.2999H38.9075C36.7036 26.2999 34.9106 28.0929 34.9106 30.2968V30.6939C34.9106 32.0254 35.9938 33.1085 37.3253 33.1085H38.7994L37.3477 37.8496C37.3466 37.8532 37.3456 37.8567 37.3445 37.8602L36.2348 41.4842C36.1045 41.9097 36.3439 42.3601 36.7693 42.4904C36.8479 42.5145 36.9274 42.526 37.0055 42.526C37.3502 42.526 37.6693 42.3029 37.7755 41.956L38.7113 38.8998H49.7618L50.6977 41.956C50.8038 42.3029 51.1228 42.526 51.4677 42.526C51.5459 42.526 51.6254 42.5145 51.7039 42.4904C52.1293 42.3601 52.3686 41.9096 52.2383 41.4842L49.6047 32.8834C50.0671 32.7524 50.5137 32.5662 50.9326 32.3261C51.3186 32.1048 51.4521 31.6125 51.2308 31.2265C51.0095 30.8406 50.5171 30.707 50.1311 30.9283C49.4819 31.3005 48.7412 31.4973 47.9891 31.4973H39.8893C39.8866 31.4973 39.8839 31.4973 39.8814 31.4973H37.3255C36.8826 31.4973 36.5222 31.137 36.5222 30.694V30.2969C36.5222 28.9815 37.5923 27.9114 38.9077 27.9114H45.7855C47.4326 27.9114 48.7832 26.6741 48.9271 25.0334L49.7216 15.9799C49.8164 14.8997 50.7056 14.085 51.79 14.085H52.5245C52.7696 14.085 52.996 14.1846 53.1615 14.3654C53.3271 14.5462 53.4066 14.7803 53.3851 15.0245L52.2849 27.5618C52.2579 27.871 52.1976 28.1769 52.106 28.471C51.9736 28.8959 52.2108 29.3476 52.6357 29.4798C53.0611 29.6122 53.5121 29.3749 53.6446 28.9503C53.7704 28.5461 53.853 28.1264 53.8902 27.7027L54.9905 15.1654C55.0506 14.4758 54.8171 13.7875 54.3495 13.277ZM40.4843 33.1087H47.9883L49.2681 37.2884H39.2044L40.4843 33.1087Z" fill="#333333"/>
<path d="M16.092 26.3009H9.21422C8.40867 26.3009 7.74824 25.6959 7.67777 24.8935L6.88328 15.8401C6.71495 13.9216 5.13564 12.4748 3.20967 12.4748H2.47523C1.78301 12.4748 1.11774 12.7675 0.650137 13.278C0.18253 13.7885 -0.0510045 14.4768 0.00936643 15.1666L1.10958 27.7039C1.23945 29.1834 1.91406 30.5507 3.00922 31.554C3.69726 32.1843 4.5142 32.6365 5.39463 32.8857L2.7613 41.4853C2.63099 41.9108 2.87033 42.3612 3.29572 42.4915C3.37435 42.5156 3.45384 42.5271 3.53194 42.5271C3.87665 42.5271 4.1958 42.304 4.30194 41.9571L5.23779 38.9009H16.2883L17.2241 41.9571C17.3303 42.304 17.6493 42.5271 17.9941 42.5271C18.0723 42.5271 18.1518 42.5156 18.2303 42.4915C18.6557 42.3612 18.8951 41.9107 18.7648 41.4853L17.6551 37.8613C17.654 37.8578 17.6529 37.8543 17.6519 37.8507L16.2002 33.1097H17.6743C19.0058 33.1097 20.0888 32.0265 20.0888 30.695V30.2979C20.0888 28.0939 18.2959 26.3009 16.092 26.3009ZM5.73118 37.2893L7.011 33.1096H14.5149L15.7948 37.2893H5.73118ZM18.4775 30.6949C18.4775 31.1379 18.1172 31.4982 17.6743 31.4982H15.119C15.1158 31.4982 15.1126 31.4982 15.1094 31.4982H7.01057C6.83827 31.4982 6.66876 31.4872 6.50183 31.4678C6.50172 31.4678 6.5015 31.4678 6.50129 31.4678C4.48563 31.2348 2.89643 29.6347 2.71467 27.5628L1.61446 15.0256C1.59298 14.7813 1.67247 14.5472 1.83811 14.3664C2.00365 14.1856 2.22988 14.086 2.47512 14.086H3.20957C4.29399 14.086 5.18322 14.9006 5.27797 15.9809L6.07246 25.0343V25.0342C6.21641 26.6749 7.56702 27.9122 9.21412 27.9122H16.0919C17.4073 27.9122 18.4774 28.9823 18.4774 30.2977V30.6949H18.4775Z" fill="#333333"/>
<path d="M33.6174 39.8686C33.2849 38.5906 32.1305 37.698 30.81 37.698H30.3114V23.0313H40.2322C40.8037 23.0313 41.3385 22.7773 41.6997 22.3344C42.0608 21.8913 42.2021 21.3162 42.0869 20.7563C41.7404 19.0715 40.2406 17.8488 38.5206 17.8488H21.7706C21.3255 17.8488 20.9649 18.2095 20.9649 18.6544C20.9649 19.0994 21.3255 19.4601 21.7706 19.4601H38.5206C39.4795 19.4601 40.3154 20.1418 40.5086 21.0809C40.5321 21.1952 40.4825 21.2773 40.4509 21.3162C40.4192 21.355 40.3487 21.4201 40.2322 21.4201H14.7674C14.6509 21.4201 14.5804 21.355 14.5487 21.3162C14.5172 21.2774 14.4675 21.1952 14.491 21.081C14.6842 20.1418 15.5201 19.4601 16.479 19.4601H17.9919C18.437 19.4601 18.7976 19.0994 18.7976 18.6544C18.7976 18.2095 18.437 17.8488 17.9919 17.8488H16.479C14.759 17.8488 13.2591 19.0715 12.9127 20.7564C12.7977 21.3163 12.9388 21.8915 13.3 22.3344C13.6611 22.7773 14.196 23.0313 14.7674 23.0313H24.6884V37.6981H24.1897C22.8692 37.6981 21.7148 38.5907 21.3824 39.8686L21.1932 40.5955C21.0721 41.0612 21.1714 41.5464 21.4656 41.9271C21.76 42.3077 22.2047 42.5261 22.6857 42.5261H32.3139C32.7951 42.5261 33.2397 42.3078 33.534 41.9271C33.8282 41.5465 33.9275 41.0612 33.8064 40.5955L33.6174 39.8686ZM26.2997 23.0313H28.7001V37.6981H26.2997V23.0313ZM22.7751 40.9147L22.9418 40.2742C23.0895 39.7062 23.6027 39.3095 24.1896 39.3095H30.8099C31.3969 39.3095 31.91 39.7062 32.0577 40.2742L32.2244 40.9147H22.7751Z" fill="#333333"/>
</g>
<defs>
<clipPath id="clip0">
<rect width="55" height="55" fill="white"/>
</clipPath>
</defs>
</svg>
