<svg width="11" height="11" viewBox="0 0 11 11" fill="none" xmlns="http://www.w3.org/2000/svg">
<path d="M3.06616 6.29797L1.04663 3.9862L3.06616 1.67444C3.22936 1.48742 3.21032 1.20342 3.0233 1.04007C2.83628 0.876878 2.55243 0.896063 2.38893 1.08293L0.111053 3.69051C-0.0370176 3.85985 -0.0370176 4.11268 0.111053 4.28202L2.38896 6.88962C2.47796 6.99122 2.60251 7.04339 2.72779 7.04339C2.83269 7.04339 2.93803 7.00682 3.0233 6.93234C3.21035 6.76899 3.22951 6.48499 3.06616 6.29797Z" fill="#88B131"/>
<path d="M7.73287 3.53662H0.449582C0.201266 3.53662 0 3.73787 0 3.9862C0 4.23452 0.201266 4.43578 0.449582 4.43578H7.73287C9.03861 4.43578 10.1008 5.49799 10.1008 6.8036C10.1008 8.10921 9.03861 9.17141 7.73287 9.17141H1.04904C0.800723 9.17141 0.599457 9.37268 0.599457 9.621C0.599457 9.86931 0.800723 10.0706 1.04904 10.0706H7.73287C9.53421 10.0706 11 8.60494 11 6.8036C11 5.00226 9.53436 3.53662 7.73287 3.53662Z" fill="#88B131"/>
</svg>
