<svg width="50" height="50" viewBox="0 0 50 50" fill="none" xmlns="http://www.w3.org/2000/svg">
<path d="M47.7405 38.0304L38.0251 31.5509C36.7922 30.7352 35.1395 31.0036 34.228 32.1676L31.398 35.8065C31.0343 36.2861 30.3732 36.4252 29.8471 36.1329L29.3088 35.8361C27.5242 34.8634 25.3038 33.6523 20.83 29.1766C16.3563 24.701 15.1429 22.4787 14.1702 20.6973L13.875 20.159C13.5787 19.6329 13.7152 18.9689 14.1949 18.6023L17.8311 15.7729C18.9946 14.8613 19.2633 13.209 18.4487 11.9756L11.9696 2.25953C11.1347 1.00357 9.45965 0.626534 8.16713 1.40357L4.10451 3.84416C2.82801 4.59467 1.89149 5.81013 1.49133 7.23587C0.0283951 12.5666 1.12895 21.7667 14.6806 35.3209C25.4606 46.1009 33.4858 48.9999 39.0018 48.9999C40.2713 49.0053 41.5358 48.8401 42.7613 48.5088C44.1872 48.109 45.4028 47.1724 46.1528 45.8954L48.5956 41.8349C49.3737 40.542 48.9969 38.8658 47.7405 38.0304ZM47.2173 41.0141L44.7801 45.077C44.2416 45.9987 43.3673 46.6764 42.3404 46.9681C37.4195 48.3192 28.8224 47.2001 15.8123 34.1891C2.80223 21.178 1.68331 12.5811 3.03432 7.65912C3.32641 6.63095 4.00487 5.75548 4.92761 5.21609L8.99022 2.77868C9.55105 2.44121 10.2781 2.60479 10.6404 3.14981L14.1599 8.43418L17.1139 12.865C17.4676 13.4 17.3514 14.1171 16.8467 14.5129L13.2097 17.3423C12.1028 18.1887 11.7867 19.7202 12.4682 20.9356L12.757 21.4604C13.7793 23.3354 15.0503 25.668 19.6904 30.3077C24.3305 34.9474 26.6622 36.2185 28.5363 37.2408L29.0618 37.5303C30.277 38.2118 31.8085 37.8958 32.6548 36.7888L35.484 33.1515C35.8799 32.6471 36.5966 32.531 37.1318 32.8844L46.8463 39.3639C47.3917 39.7259 47.5552 40.4533 47.2173 41.0141Z" fill="#88B131" stroke="#88B131" stroke-width="0.5"/>
</svg>
