<svg width="16" height="16" viewBox="0 0 16 16" fill="none" xmlns="http://www.w3.org/2000/svg">
<path d="M13.7737 1.09863C12.9673 0.29362 11.6614 0.29362 10.855 1.09863L10.1243 1.83326L2.34682 9.60664L2.3303 9.62329C2.32629 9.6273 2.32629 9.63156 2.32203 9.63156C2.31377 9.64396 2.30137 9.65622 2.29323 9.66862C2.29323 9.67275 2.28897 9.67275 2.28897 9.67688C2.28071 9.68928 2.27671 9.69755 2.26831 9.70994C2.26431 9.71408 2.26431 9.71808 2.26018 9.72234C2.25604 9.73474 2.25191 9.743 2.24765 9.7554C2.24765 9.7594 2.24365 9.7594 2.24365 9.76366L0.518054 14.9527C0.467434 15.1004 0.505915 15.264 0.617098 15.3737C0.695223 15.4508 0.800595 15.4939 0.910228 15.4935C0.955037 15.4927 0.999459 15.4858 1.04233 15.4729L6.22738 13.7431C6.23138 13.7431 6.23138 13.7431 6.23564 13.7391C6.24868 13.7353 6.26121 13.7297 6.2727 13.7225C6.27593 13.7221 6.27877 13.7207 6.2811 13.7185C6.29336 13.7102 6.30989 13.7018 6.32229 13.6935C6.33456 13.6854 6.34708 13.673 6.35948 13.6647C6.36361 13.6605 6.36761 13.6605 6.36761 13.6565C6.37188 13.6523 6.38014 13.6483 6.38427 13.64L14.8924 5.13182C15.6974 4.32539 15.6974 3.01947 14.8924 2.21317L13.7737 1.09863ZM6.09527 12.773L3.22208 9.8999L10.4133 2.70865L13.2865 5.58171L6.09527 12.773ZM2.81738 10.6636L5.32745 13.1735L1.55834 14.4284L2.81738 10.6636ZM14.3104 4.55382L13.8728 4.99558L10.9995 2.12226L11.4413 1.68063C11.9247 1.19768 12.7081 1.19768 13.1916 1.68063L14.3144 2.80343C14.7941 3.28897 14.7923 4.07061 14.3104 4.55382Z" fill="#88B131"/>
</svg>
