<svg width="17" height="17" viewBox="0 0 17 17" fill="none" xmlns="http://www.w3.org/2000/svg">
<g clip-path="url(#clip0)">
<path d="M14.9247 2.03137H2.07883C0.932133 2.03137 0 2.96351 0 4.11021V12.8898C0 14.0365 0.932133 14.9687 2.07883 14.9687H14.9212C16.0679 14.9687 17 14.0365 17 12.8898V4.11372C17.0035 2.96702 16.0714 2.03137 14.9247 2.03137ZM16.0538 12.8898C16.0538 13.5124 15.5473 14.019 14.9247 14.019H2.07883C1.45624 14.019 0.949721 13.5124 0.949721 12.8898V4.11372C0.949721 3.49113 1.45624 2.98461 2.07883 2.98461H14.9212C15.5438 2.98461 16.0503 3.49113 16.0503 4.11372V12.8898H16.0538Z" fill="#333333"/>
<path d="M10.7211 8.39102L14.8788 4.66249C15.0723 4.48662 15.0899 4.18763 14.914 3.99065C14.7381 3.79719 14.4391 3.7796 14.2421 3.95548L8.50865 9.10155L7.39009 8.10259C7.38657 8.09907 7.38306 8.09555 7.38306 8.09204C7.35843 8.06741 7.33381 8.04631 7.30567 8.0252L2.75405 3.95196C2.55707 3.77608 2.25808 3.79367 2.08221 3.99065C1.90633 4.18763 1.92392 4.48662 2.1209 4.66249L6.32781 8.42268L2.13849 12.3447C1.94854 12.5241 1.93799 12.823 2.11738 13.0165C2.21235 13.115 2.33898 13.1678 2.46561 13.1678C2.58169 13.1678 2.69777 13.1256 2.78922 13.0411L7.04186 9.06286L8.19559 10.0935C8.28705 10.1744 8.39961 10.2131 8.51217 10.2131C8.62473 10.2131 8.7408 10.1709 8.82874 10.09L10.0141 9.02769L14.2421 13.0447C14.3336 13.1326 14.4532 13.1748 14.5693 13.1748C14.6959 13.1748 14.819 13.1256 14.914 13.0271C15.0934 12.8371 15.0863 12.5346 14.8964 12.3552L10.7211 8.39102Z" fill="#333333"/>
</g>
<defs>
<clipPath id="clip0">
<rect width="17" height="17" fill="white"/>
</clipPath>
</defs>
</svg>
