<svg width="17" height="17" viewBox="0 0 17 17" fill="none" xmlns="http://www.w3.org/2000/svg">
<g clip-path="url(#clip0)">
<path d="M14.9247 2.03125H2.07883C0.932133 2.03125 0 2.96338 0 4.11008V12.8897C0 14.0364 0.932133 14.9686 2.07883 14.9686H14.9212C16.0679 14.9686 17 14.0364 17 12.8897V4.1136C17.0035 2.9669 16.0714 2.03125 14.9247 2.03125ZM16.0538 12.8897C16.0538 13.5123 15.5473 14.0188 14.9247 14.0188H2.07883C1.45624 14.0188 0.949721 13.5123 0.949721 12.8897V4.1136C0.949721 3.49101 1.45624 2.98449 2.07883 2.98449H14.9212C15.5438 2.98449 16.0503 3.49101 16.0503 4.1136V12.8897H16.0538Z" fill="#FACF5C"/>
<path d="M10.7211 8.3909L14.8788 4.66237C15.0723 4.48649 15.0899 4.18751 14.914 3.99053C14.7381 3.79707 14.4391 3.77948 14.2421 3.95535L8.50865 9.10143L7.39009 8.10247C7.38657 8.09895 7.38306 8.09543 7.38306 8.09191C7.35843 8.06729 7.33381 8.04619 7.30567 8.02508L2.75405 3.95184C2.55707 3.77596 2.25808 3.79355 2.08221 3.99053C1.90633 4.18751 1.92392 4.48649 2.1209 4.66237L6.32781 8.42256L2.13849 12.3446C1.94854 12.5239 1.93799 12.8229 2.11738 13.0164C2.21235 13.1149 2.33898 13.1676 2.46561 13.1676C2.58169 13.1676 2.69777 13.1254 2.78922 13.041L7.04186 9.06274L8.19559 10.0934C8.28705 10.1743 8.39961 10.213 8.51217 10.213C8.62473 10.213 8.7408 10.1707 8.82874 10.0898L10.0141 9.02756L14.2421 13.0445C14.3336 13.1325 14.4532 13.1747 14.5693 13.1747C14.6959 13.1747 14.819 13.1254 14.914 13.0269C15.0934 12.837 15.0863 12.5345 14.8964 12.3551L10.7211 8.3909Z" fill="#FACF5C"/>
</g>
<defs>
<clipPath id="clip0">
<rect width="17" height="17" fill="white"/>
</clipPath>
</defs>
</svg>
