<svg width="23" height="23" viewBox="0 0 23 23" fill="none" xmlns="http://www.w3.org/2000/svg">
<g clip-path="url(#clip0)">
<path d="M11.5037 5.59473C8.2425 5.59473 5.60229 8.23781 5.60229 11.4961C5.60229 14.7574 8.24538 17.3976 11.5037 17.3976C14.7649 17.3976 17.4051 14.7545 17.4051 11.4961C17.4051 8.23494 14.762 5.59473 11.5037 5.59473ZM11.5037 15.3266C9.38675 15.3266 7.67325 13.6121 7.67325 11.4961C7.67325 9.38014 9.38771 7.66569 11.5037 7.66569C13.6197 7.66569 15.3342 9.38014 15.3342 11.4961C15.3351 13.6121 13.6207 15.3266 11.5037 15.3266Z" fill="#333333"/>
<path d="M16.2418 0.0728559C14.1258 -0.0258524 8.88468 -0.0210608 6.76677 0.0728559C4.90568 0.160064 3.26406 0.609522 1.9406 1.93298C-0.271235 4.14481 0.0114737 7.12523 0.0114737 11.4962C0.0114737 15.9697 -0.237693 18.8811 1.9406 21.0594C4.16106 23.2789 7.1846 22.9885 11.5038 22.9885C15.9351 22.9885 17.4646 22.9914 19.0315 22.3848C21.1619 21.5577 22.77 19.6535 22.9271 16.2332C23.0268 14.1163 23.0211 8.87611 22.9271 6.75819C22.7374 2.72073 20.5706 0.272189 16.2418 0.0728559ZM19.5912 19.596C18.1412 21.046 16.1297 20.9166 11.476 20.9166C6.68435 20.9166 4.76289 20.9875 3.36085 19.5816C1.74606 17.9745 2.03835 15.3937 2.03835 11.4809C2.03835 6.18606 1.49497 2.37286 6.80893 2.10069C8.02985 2.05756 8.38923 2.04319 11.4626 2.04319L11.5057 2.07194C16.6127 2.07194 20.6195 1.53719 20.86 6.85019C20.9146 8.06248 20.9271 8.42665 20.9271 11.4952C20.9261 16.2313 21.0162 18.1643 19.5912 19.596Z" fill="#333333"/>
<path d="M17.6388 6.74086C18.4004 6.74086 19.0178 6.12345 19.0178 5.36183C19.0178 4.6002 18.4004 3.98279 17.6388 3.98279C16.8772 3.98279 16.2598 4.6002 16.2598 5.36183C16.2598 6.12345 16.8772 6.74086 17.6388 6.74086Z" fill="#333333"/>
</g>
<defs>
<clipPath id="clip0">
<rect width="23" height="23" fill="white"/>
</clipPath>
</defs>
</svg>
