<svg width="23" height="23" viewBox="0 0 23 23" fill="none" xmlns="http://www.w3.org/2000/svg">
<g clip-path="url(#clip0)">
<path d="M11.5037 5.59473C8.2425 5.59473 5.60229 8.23781 5.60229 11.4961C5.60229 14.7574 8.24538 17.3976 11.5037 17.3976C14.7649 17.3976 17.4051 14.7545 17.4051 11.4961C17.4051 8.23494 14.762 5.59473 11.5037 5.59473ZM11.5037 15.3266C9.38675 15.3266 7.67325 13.6121 7.67325 11.4961C7.67325 9.38014 9.38771 7.66569 11.5037 7.66569C13.6197 7.66569 15.3342 9.38014 15.3342 11.4961C15.3351 13.6121 13.6207 15.3266 11.5037 15.3266Z" fill="#FAD163"/>
<path d="M16.2418 0.0727338C14.1258 -0.0259745 8.88468 -0.0211828 6.76677 0.0727338C4.90568 0.159942 3.26406 0.6094 1.9406 1.93286C-0.271235 4.14469 0.0114737 7.12511 0.0114737 11.4961C0.0114737 15.9696 -0.237693 18.881 1.9406 21.0593C4.16106 23.2788 7.1846 22.9884 11.5038 22.9884C15.9351 22.9884 17.4646 22.9913 19.0315 22.3847C21.1619 21.5576 22.77 19.6534 22.9271 16.2331C23.0268 14.1162 23.0211 8.87599 22.9271 6.75807C22.7374 2.72061 20.5706 0.272067 16.2418 0.0727338ZM19.5912 19.5959C18.1412 21.0459 16.1297 20.9165 11.476 20.9165C6.68435 20.9165 4.76289 20.9874 3.36085 19.5815C1.74606 17.9744 2.03835 15.3936 2.03835 11.4807C2.03835 6.18594 1.49497 2.37273 6.80893 2.10057C8.02985 2.05744 8.38923 2.04307 11.4626 2.04307L11.5057 2.07182C16.6127 2.07182 20.6195 1.53707 20.86 6.85007C20.9146 8.06236 20.9271 8.42653 20.9271 11.4951C20.9261 16.2312 21.0162 18.1642 19.5912 19.5959Z" fill="#FAD163"/>
<path d="M17.6391 6.74074C18.4007 6.74074 19.0181 6.12333 19.0181 5.3617C19.0181 4.60008 18.4007 3.98267 17.6391 3.98267C16.8774 3.98267 16.26 4.60008 16.26 5.3617C16.26 6.12333 16.8774 6.74074 17.6391 6.74074Z" fill="#FAD163"/>
</g>
<defs>
<clipPath id="clip0">
<rect width="23" height="23" fill="white"/>
</clipPath>
</defs>
</svg>
