<svg width="154" height="24" viewBox="0 0 154 24" fill="none" xmlns="http://www.w3.org/2000/svg">
<path d="M16.832 23V4.152H10.176L10.048 7.992C9.94133 11 9.696 13.4853 9.312 15.448C8.928 17.4107 8.37333 18.9573 7.648 20.088C6.944 21.1973 6.03733 21.9867 4.928 22.456C3.84 22.904 2.51733 23.128 0.96 23.128V19.32C1.74933 19.32 2.432 19.1493 3.008 18.808C3.584 18.4667 4.064 17.848 4.448 16.952C4.85333 16.056 5.17333 14.7867 5.408 13.144C5.64267 11.5013 5.80267 9.37867 5.888 6.776L6.112 0.279999H21.216V23H16.832ZM35.689 23.16C34.025 23.16 32.5103 22.84 31.145 22.2C29.801 21.56 28.6383 20.696 27.657 19.608C26.697 18.4987 25.9503 17.2613 25.417 15.896C24.8837 14.5093 24.617 13.0907 24.617 11.64C24.617 10.1253 24.8943 8.68533 25.449 7.32C26.0037 5.93333 26.7823 4.70667 27.785 3.64C28.7877 2.552 29.961 1.69867 31.305 1.08C32.6703 0.439999 34.1637 0.119999 35.785 0.119999C37.4277 0.119999 38.921 0.450666 40.265 1.112C41.6303 1.77333 42.793 2.65867 43.753 3.768C44.7343 4.87733 45.481 6.12533 45.993 7.512C46.5263 8.87733 46.793 10.2747 46.793 11.704C46.793 13.1973 46.5157 14.6373 45.961 16.024C45.4063 17.3893 44.6277 18.616 43.625 19.704C42.6437 20.7707 41.4703 21.6133 40.105 22.232C38.761 22.8507 37.289 23.16 35.689 23.16ZM29.097 11.64C29.097 12.9627 29.353 14.2 29.865 15.352C30.3983 16.504 31.1557 17.4427 32.137 18.168C33.1397 18.8933 34.3343 19.256 35.721 19.256C37.1503 19.256 38.3557 18.8827 39.337 18.136C40.3183 17.3893 41.065 16.4293 41.577 15.256C42.089 14.0827 42.345 12.8773 42.345 11.64C42.345 10.3173 42.0783 9.08 41.545 7.928C41.0117 6.776 40.2437 5.848 39.241 5.144C38.2597 4.41867 37.0863 4.056 35.721 4.056C34.2917 4.056 33.0863 4.42933 32.105 5.176C31.1237 5.92267 30.377 6.88267 29.865 8.056C29.353 9.208 29.097 10.4027 29.097 11.64ZM50.2445 23V0.279999H64.1965V4.152H54.6285V23H50.2445ZM77.064 23.16C75.4 23.16 73.8853 22.84 72.52 22.2C71.176 21.56 70.0133 20.696 69.032 19.608C68.072 18.4987 67.3253 17.2613 66.792 15.896C66.2587 14.5093 65.992 13.0907 65.992 11.64C65.992 10.1253 66.2693 8.68533 66.824 7.32C67.3787 5.93333 68.1573 4.70667 69.16 3.64C70.1627 2.552 71.336 1.69867 72.68 1.08C74.0453 0.439999 75.5387 0.119999 77.16 0.119999C78.8027 0.119999 80.296 0.450666 81.64 1.112C83.0053 1.77333 84.168 2.65867 85.128 3.768C86.1093 4.87733 86.856 6.12533 87.368 7.512C87.9013 8.87733 88.168 10.2747 88.168 11.704C88.168 13.1973 87.8907 14.6373 87.336 16.024C86.7813 17.3893 86.0027 18.616 85 19.704C84.0187 20.7707 82.8453 21.6133 81.48 22.232C80.136 22.8507 78.664 23.16 77.064 23.16ZM70.472 11.64C70.472 12.9627 70.728 14.2 71.24 15.352C71.7733 16.504 72.5307 17.4427 73.512 18.168C74.5147 18.8933 75.7093 19.256 77.096 19.256C78.5253 19.256 79.7307 18.8827 80.712 18.136C81.6933 17.3893 82.44 16.4293 82.952 15.256C83.464 14.0827 83.72 12.8773 83.72 11.64C83.72 10.3173 83.4533 9.08 82.92 7.928C82.3867 6.776 81.6187 5.848 80.616 5.144C79.6347 4.41867 78.4613 4.056 77.096 4.056C75.6667 4.056 74.4613 4.42933 73.48 5.176C72.4987 5.92267 71.752 6.88267 71.24 8.056C70.728 9.208 70.472 10.4027 70.472 11.64ZM108.016 4.152H100.752V23H96.3683V4.152H89.1043V0.279999H108.016V4.152ZM110.997 23V0.279999H115.381V16.792L126.389 0.279999H130.485V23H126.101V6.68L115.221 23H110.997ZM135.432 23V0.279999H153.832V23H149.448V4.152H139.816V23H135.432Z" fill="#FAD163"/>
</svg>
