<svg width="46" height="46" viewBox="0 0 46 46" fill="none" xmlns="http://www.w3.org/2000/svg">
<g clip-path="url(#clip0)">
<path d="M10.7331 31.4333C9.46289 31.4333 8.43311 32.4631 8.43311 33.7333C8.43311 35.0036 9.4628 36.0333 10.7331 36.0333C12.0034 36.0333 13.0331 35.0036 13.0331 33.7333C13.0317 32.4637 12.0028 31.4347 10.7331 31.4333ZM10.7331 34.5C10.3097 34.5 9.96647 34.1568 9.96647 33.7333C9.96647 33.3099 10.3097 32.9667 10.7331 32.9667C11.1565 32.9667 11.4997 33.3099 11.4997 33.7333C11.4993 34.1566 11.1564 34.4995 10.7331 34.5Z" fill="#3E3F53"/>
<path d="M35.2668 31.4333C33.9966 31.4333 32.9668 32.4631 32.9668 33.7333C32.9668 35.0036 33.9966 36.0333 35.2668 36.0333C36.537 36.0333 37.5668 35.0036 37.5668 33.7333C37.5655 32.4637 36.5365 31.4347 35.2668 31.4333ZM35.2668 34.5C34.8434 34.5 34.5002 34.1568 34.5002 33.7333C34.5002 33.3099 34.8435 32.9667 35.2668 32.9667C35.6902 32.9667 36.0334 33.3099 36.0334 33.7333C36.0331 34.1566 35.6901 34.4995 35.2668 34.5Z" fill="#3E3F53"/>
<path d="M45.4157 20.5203L40.1344 14.5727C39.6968 14.08 39.069 13.7987 38.4101 13.8H31.4334V9.20002C31.432 7.93035 30.403 6.90137 29.1334 6.90002H2.3C1.03033 6.90137 0.00134773 7.93035 7.48728e-08 9.20002V29.1334C-8.97689e-05 29.3367 0.0806798 29.5318 0.22452 29.6756C0.36827 29.8193 0.56332 29.9001 0.766727 29.9001H1.53336V32.2001C1.53471 33.4698 2.56369 34.4988 3.83336 34.5001H5.42791C5.80579 37.1397 8.0668 39.1001 10.7334 39.1001C13.3999 39.1001 15.6609 37.1397 16.0388 34.5001H29.9614C30.3392 37.1397 32.6003 39.1001 35.2668 39.1001C37.9334 39.1001 40.1944 37.1397 40.5723 34.5001H43.7C44.9697 34.4988 45.9987 33.4698 46 32.2001V22.0492C45.9995 21.4851 45.7915 20.941 45.4157 20.5203ZM1.53336 28.3667V9.20002C1.53381 8.77677 1.87675 8.43375 2.3 8.43339H29.1334C29.5566 8.43384 29.8996 8.77677 29.9 9.20002V28.3667H1.53336ZM5.42791 32.9667H3.83336C3.41011 32.9662 3.06709 32.6233 3.06673 32.2V29.9H6.98481C6.14262 30.7232 5.59538 31.801 5.42791 32.9667ZM10.7334 37.5667C8.61629 37.5667 6.9 35.8504 6.9 33.7333C6.9 31.6162 8.61629 29.9 10.7334 29.9C12.8504 29.9 14.5667 31.6163 14.5667 33.7334C14.5642 35.8494 12.8494 37.5642 10.7334 37.5667ZM18.4 32.9667H16.0387C15.8713 31.801 15.3241 30.7231 14.4819 29.9H18.4V32.9667ZM25.3 32.9667H19.9334V29.9H25.3V32.9667ZM29.9613 32.9667H26.8334V29.9H31.5181C30.6759 30.7232 30.1287 31.801 29.9613 32.9667ZM35.2666 37.5667C33.1496 37.5667 31.4333 35.8504 31.4333 33.7333C31.4333 31.6162 33.1495 29.8999 35.2666 29.8999C37.3837 29.8999 39.1 31.6162 39.1 33.7333C39.0975 35.8494 37.3827 37.5642 35.2666 37.5667ZM44.4666 32.2C44.4662 32.6233 44.1233 32.9663 43.7 32.9667H40.5721C40.1898 30.3295 37.9315 28.3714 35.2666 28.3667H31.4333V15.3334H34.5V23C34.5013 24.2697 35.5303 25.2987 36.8 25.3H44.4666V32.2ZM44.4666 23.7667H36.8C36.3767 23.7662 36.0337 23.4233 36.0334 23V15.3334H38.4101C38.6302 15.3321 38.8403 15.4254 38.987 15.5894L44.2701 21.5393C44.3959 21.6795 44.4658 21.8609 44.4667 22.0492V23.7667H44.4666Z" fill="#3E3F53"/>
</g>
<defs>
<clipPath id="clip0">
<rect width="46" height="46" fill="white"/>
</clipPath>
</defs>
</svg>
