<svg width="14" height="14" viewBox="0 0 14 14" fill="none" xmlns="http://www.w3.org/2000/svg">
<path d="M6.99699 0C3.90349 0 1.38525 2.51824 1.38525 5.61174C1.38525 5.96394 1.41754 6.31908 1.48504 6.66541C1.48798 6.68595 1.49972 6.74759 1.5232 6.85325C1.60831 7.23187 1.73452 7.60461 1.89888 7.95975C2.50349 9.38323 3.83305 11.5698 6.75045 13.912C6.82383 13.9707 6.91188 14 6.99993 14C7.08798 14 7.17603 13.9707 7.2494 13.912C10.1639 11.5698 11.4964 9.38323 12.101 7.95975C12.2653 7.60461 12.3915 7.2348 12.4767 6.85325C12.5001 6.74759 12.5119 6.68595 12.5148 6.66541C12.5794 6.31908 12.6146 5.96394 12.6146 5.61174C12.6087 2.51824 10.0905 0 6.99699 0ZM11.7282 6.52746C11.7282 6.53333 11.7253 6.5392 11.7253 6.54507C11.7224 6.55975 11.7136 6.60377 11.6989 6.67128C11.6989 6.67421 11.6989 6.67421 11.6989 6.67715C11.6255 7.00587 11.5169 7.32579 11.3731 7.63396C11.3702 7.6369 11.3702 7.64277 11.3672 7.6457C10.8184 8.94591 9.61502 10.93 6.99699 13.0931C4.37896 10.93 3.17561 8.94591 2.62676 7.6457C2.62383 7.64277 2.62383 7.6369 2.62089 7.63396C2.48001 7.32872 2.37142 7.00587 2.29511 6.67715C2.29511 6.67421 2.29511 6.67421 2.29511 6.67128C2.2775 6.60377 2.27163 6.55975 2.26869 6.54507C2.26869 6.5392 2.26576 6.53333 2.26576 6.52453C2.20706 6.22222 2.17771 5.91698 2.17771 5.60881C2.17771 2.95262 4.34081 0.789518 6.99699 0.789518C9.65317 0.789518 11.8163 2.95262 11.8163 5.60881C11.8163 5.91992 11.7869 6.22809 11.7282 6.52746Z" fill="#FACF5C"/>
<path d="M6.99694 2.11035C5.03342 2.11035 3.43384 3.70993 3.43384 5.67345C3.43384 7.63698 5.03342 9.23656 6.99694 9.23656C8.96046 9.23656 10.56 7.63698 10.56 5.67345C10.56 3.70993 8.96046 2.11035 6.99694 2.11035ZM6.99694 8.4441C5.4678 8.4441 4.22629 7.19966 4.22629 5.67345C4.22629 4.14725 5.47074 2.9028 6.99694 2.9028C8.52315 2.9028 9.76759 4.14725 9.76759 5.67345C9.76759 7.19966 8.52608 8.4441 6.99694 8.4441Z" fill="#FACF5C"/>
</svg>
