<svg width="42" height="38" viewBox="0 0 42 38" fill="none" xmlns="http://www.w3.org/2000/svg">
<path d="M41.9994 5.85968C41.9994 5.8553 41.9988 5.85093 41.9986 5.84648C41.9982 5.82905 41.9971 5.81187 41.995 5.79483C41.9941 5.78858 41.9929 5.78233 41.9919 5.77608C41.9895 5.76038 41.9864 5.74491 41.9827 5.72976C41.9812 5.72374 41.9795 5.7178 41.9778 5.71179C41.9731 5.6953 41.9676 5.67913 41.9614 5.66319C41.9603 5.66015 41.9595 5.65702 41.9583 5.65405L40.2894 1.58515C40.1211 1.17516 39.7137 0.910156 39.2514 0.910156H36.2127C35.8814 0.910156 35.6129 1.16586 35.6129 1.48133C35.6129 1.7968 35.8814 2.0525 36.2127 2.0525H39.1933L40.5215 5.2907H27.9647L27.1779 2.0525H31.8154C32.1466 2.0525 32.4151 1.7968 32.4151 1.48133C32.4151 1.16586 32.1466 0.910156 31.8154 0.910156H26.4236H20.3806H7.55264C7.09031 0.910156 6.68295 1.17516 6.5147 1.58531L4.84578 5.65405C4.84455 5.6571 4.84389 5.66023 4.84266 5.66319C4.83643 5.67905 4.83101 5.69523 4.82626 5.71179C4.82453 5.7178 4.82289 5.72374 4.82142 5.72976C4.81764 5.74499 4.81461 5.76046 4.81215 5.77608C4.81116 5.78233 4.80993 5.78858 4.80911 5.79483C4.80706 5.81187 4.80591 5.82905 4.80542 5.84648C4.80534 5.85085 4.80476 5.85523 4.80468 5.85968C4.80468 5.86038 4.8046 5.86108 4.8046 5.86179V14.2532C4.8046 14.5686 5.07309 14.8244 5.40433 14.8244C5.73557 14.8244 6.00406 14.5686 6.00406 14.2532V6.43304H18.7166V15.1149C18.7166 15.4544 18.9266 15.7638 19.2517 15.9031C19.3707 15.9541 19.4974 15.979 19.6234 15.979C19.8412 15.979 20.0567 15.9045 20.2257 15.7618L23.402 13.0819L26.5784 15.7618C26.845 15.987 27.2275 16.0424 27.5526 15.9031C27.8776 15.7637 28.0876 15.4544 28.0876 15.1149V6.43304H40.8V32.052C40.8 32.4618 40.4498 32.7953 40.0195 32.7953H29.023C29.023 32.7888 29.0221 32.7824 29.0221 32.7759C29.0214 32.7246 29.0194 32.6735 29.0148 32.6227C30.0474 32.8834 31.1506 32.378 31.5644 31.4116C31.782 30.9032 31.7788 30.3446 31.5553 29.8387C31.5342 29.791 31.511 29.7448 31.4865 29.6992C31.482 29.6909 31.4777 29.6824 31.4732 29.6742C31.4491 29.6307 31.4235 29.5883 31.3965 29.547C31.3913 29.5389 31.3859 29.5311 31.3805 29.5231C31.352 29.4807 31.3224 29.4391 31.2908 29.399C31.2902 29.3982 31.2896 29.3975 31.289 29.3968C31.2577 29.3572 31.2245 29.3191 31.1903 29.2818C31.1841 29.275 31.1779 29.2682 31.1716 29.2614C31.1377 29.2254 31.1025 29.1907 31.0661 29.1571C31.059 29.1506 31.0518 29.1442 31.0445 29.1378C31.0064 29.1037 30.9674 29.0705 30.9267 29.0392C30.9253 29.0382 30.9239 29.0371 30.9225 29.0361C30.8824 29.0054 30.8409 28.9764 30.7985 28.9484C30.7908 28.9433 30.7833 28.9382 30.7755 28.9332C30.7331 28.906 30.6896 28.8803 30.645 28.8558C30.6413 28.8538 30.6379 28.8514 30.6341 28.8494C30.8876 28.6405 31.0877 28.3761 31.218 28.0719C31.4356 27.5635 31.4324 27.005 31.2089 26.4989C31.0133 26.0562 30.6695 25.7001 30.2292 25.4792C30.1662 25.4476 30.1013 25.4188 30.0347 25.3929L20.7006 21.7682L25.0454 20.4874C26.0791 20.1826 26.6613 19.1326 26.3432 18.1469C26.2245 17.779 25.9891 17.4686 25.6851 17.2418C25.2327 16.9043 24.6281 16.7518 24.0284 16.8718C24.0256 16.8724 24.0228 16.8729 24.0199 16.8736C23.9867 16.8807 20.6559 17.594 17.1772 18.24C17.0229 18.2686 16.8725 18.2963 16.7243 18.3235C16.6057 18.3452 16.4887 18.3666 16.3739 18.3874C16.341 18.3934 16.3079 18.3993 16.2752 18.4053C16.0726 18.4419 15.8763 18.477 15.6854 18.5107C15.6087 18.5243 15.5325 18.5378 15.4576 18.5509C11.0889 19.3174 9.86165 19.3311 9.52106 19.2872C9.51975 19.2871 9.5186 19.2869 9.51729 19.2867C9.51212 19.286 9.50703 19.2853 9.50227 19.2846C9.49883 19.284 9.49563 19.2835 9.49243 19.283C9.49013 19.2826 9.48767 19.2822 9.48546 19.2819C9.46421 19.2782 9.44764 19.2744 9.43484 19.2707L9.33657 19.2326L9.45904 18.9466C9.57947 18.6654 9.57766 18.3563 9.45404 18.0764C9.42311 18.0064 9.38546 17.9403 9.34182 17.8787C9.2109 17.6941 9.02576 17.5504 8.80427 17.4643L5.58307 16.2135C5.28784 16.0987 4.96325 16.1005 4.66933 16.2183C4.37533 16.336 4.1472 16.5558 4.02678 16.8369L0.0878935 26.0371C-0.160661 26.6177 0.133093 27.2825 0.742666 27.5193L3.96394 28.7703C4.11103 28.8274 4.26319 28.8544 4.41306 28.8544C4.88417 28.8544 5.33157 28.5871 5.52016 28.1467L5.54977 28.0775L6.29248 28.3659C6.29289 28.366 6.2933 28.3663 6.29379 28.3664C7.00418 28.6423 7.65871 29.0359 8.22521 29.5243C8.32825 29.6132 8.42832 29.7051 8.52537 29.8C8.62241 29.8949 8.71625 29.9929 8.8069 30.0937C8.85218 30.1441 8.89672 30.1953 8.94028 30.2471C9.76576 31.2274 10.8479 31.9963 12.0696 32.4708L12.9052 32.7953H6.78467C6.35433 32.7953 6.00414 32.4617 6.00414 32.0519V30.6067C6.00414 30.2912 5.73565 30.0355 5.40441 30.0355C5.07317 30.0355 4.80468 30.2912 4.80468 30.6067V32.0519C4.80468 33.0917 5.69283 33.9376 6.78467 33.9376H15.8469L23.5727 36.9377C23.8386 37.041 24.1137 37.09 24.3847 37.0899C25.2361 37.0899 26.0447 36.6067 26.3856 35.8107C26.5254 35.4842 26.5702 35.143 26.5326 34.8149C26.9345 34.8699 27.3511 34.8195 27.7288 34.6642C28.1126 34.5063 28.4307 34.2548 28.6566 33.9375H40.0196C41.1113 33.9375 41.9995 33.0917 41.9995 32.0518V5.86187C41.9995 5.86108 41.9994 5.86046 41.9994 5.85968ZM20.8573 2.0525H25.9467L26.7335 5.2907H20.0706L20.8573 2.0525ZM18.8395 5.2907H6.28255L7.61072 2.0525H19.6262L18.8395 5.2907ZM26.8883 14.497H26.8882L24.0038 12.0634C23.8323 11.9187 23.6172 11.8464 23.4022 11.8464C23.1871 11.8464 22.9719 11.9187 22.8004 12.0634L19.9161 14.497V6.43304H26.8883V14.497ZM4.41159 27.7104L1.20065 26.4635L5.13535 17.2733L8.34629 18.5203L4.41159 27.7104ZM28.3716 31.1574L27.6833 30.89C27.683 30.8899 27.6827 30.8898 27.6823 30.8896C27.6821 30.8896 27.6818 30.8894 27.6816 30.8893C27.6815 30.8893 27.6814 30.8892 27.6813 30.8892L20.513 28.1056C20.2063 27.9865 19.8563 28.1267 19.7312 28.4189C19.6061 28.711 19.7534 29.0443 20.0602 29.1635L27.2287 31.9472C27.2586 31.9588 27.2876 31.9717 27.3156 31.9859C27.3234 31.9899 27.3307 31.9947 27.3385 31.9988C27.3581 32.0095 27.3779 32.0201 27.3965 32.0319C27.4055 32.0376 27.4137 32.0442 27.4224 32.0501C27.4389 32.0613 27.4557 32.0724 27.4713 32.0846C27.4807 32.092 27.4892 32.1002 27.4983 32.1078C27.5123 32.1196 27.5266 32.131 27.5397 32.1435C27.5488 32.1521 27.5569 32.1616 27.5656 32.1705C27.5777 32.1828 27.59 32.1949 27.6014 32.2079C27.61 32.2178 27.6175 32.2284 27.6257 32.2386C27.636 32.2514 27.6467 32.264 27.6561 32.2773C27.664 32.2884 27.6708 32.3001 27.6782 32.3114C27.6868 32.3246 27.6958 32.3374 27.7036 32.351C27.7106 32.3631 27.7165 32.3759 27.723 32.3883C27.7299 32.4017 27.7374 32.4148 27.7436 32.4285C27.7496 32.4416 27.7544 32.4552 27.7598 32.4685C27.7652 32.4821 27.7711 32.4953 27.7758 32.5091C27.7806 32.5229 27.7842 32.5371 27.7882 32.551C27.7923 32.5649 27.7968 32.5785 27.8001 32.5924C27.8035 32.6066 27.8056 32.621 27.8083 32.6352C27.811 32.6494 27.8142 32.6635 27.8161 32.6778C27.8181 32.6922 27.8188 32.7067 27.8201 32.7212C27.8213 32.7357 27.8231 32.7502 27.8236 32.7647C27.8241 32.779 27.8233 32.7935 27.8232 32.8078C27.823 32.8227 27.8233 32.8375 27.8223 32.8524C27.8214 32.8666 27.8192 32.8807 27.8175 32.8949C27.8158 32.9101 27.8145 32.9253 27.8119 32.9405C27.8095 32.9544 27.8058 32.9682 27.8028 32.9821C27.7993 32.9975 27.7964 33.0129 27.7921 33.0282C27.7883 33.0417 27.7832 33.0552 27.7787 33.0686C27.7736 33.0839 27.769 33.0992 27.763 33.1143C27.7579 33.1247 27.7529 33.1352 27.7482 33.1457C27.7471 33.1481 27.7466 33.1506 27.7456 33.153C27.6519 33.359 27.479 33.5227 27.2531 33.6156C27.0046 33.7177 26.72 33.7213 26.4723 33.625L25.2022 33.1318C25.1963 33.1296 25.1903 33.128 25.1844 33.1259C25.1784 33.1233 25.1728 33.1203 25.1667 33.118L19.3362 30.8539C19.0294 30.7348 18.6795 30.8749 18.5545 31.1671C18.4294 31.4592 18.5766 31.7926 18.8834 31.9117L24.7138 34.1759C24.72 34.1783 24.7263 34.18 24.7327 34.1822C24.7383 34.1845 24.7436 34.1874 24.7494 34.1896C25.2387 34.3797 25.4745 34.9135 25.275 35.3795C25.0755 35.8456 24.5153 36.0703 24.0257 35.8801L16.1922 32.8381C16.1918 32.8379 16.1915 32.8378 16.1912 32.8376L12.5227 31.413C11.877 31.1622 11.2773 30.8142 10.748 30.386C10.4304 30.129 10.1381 29.8433 9.87625 29.5324C9.61827 29.226 9.33526 28.9403 9.03076 28.6778C8.36081 28.1002 7.58685 27.6348 6.74693 27.3085C6.74685 27.3085 6.74677 27.3085 6.74669 27.3085L6.00299 27.0197L7.48423 23.56L8.88401 20.2905L8.98728 20.3306C9.08449 20.3683 9.22312 20.4219 9.5962 20.4354C10.0623 20.4554 10.8334 20.4091 12.2148 20.2232C13.1545 20.0968 14.3071 19.914 15.6526 19.6782C15.6858 19.6725 15.7187 19.6667 15.7521 19.6608C15.8151 19.6497 15.8786 19.6385 15.9425 19.6272C15.9921 19.6185 16.042 19.6096 16.0922 19.6006C16.1495 19.5904 16.207 19.5801 16.2649 19.5697C16.3264 19.5587 16.3885 19.5475 16.451 19.5362C16.5011 19.5272 16.551 19.5182 16.6016 19.509C16.6778 19.4952 16.7553 19.4811 16.8331 19.4668C16.8731 19.4595 16.9127 19.4523 16.9531 19.445C17.0722 19.4231 17.1929 19.4009 17.3157 19.3782C20.7825 18.736 24.1285 18.0212 24.2789 17.989C24.2939 17.9861 24.3089 17.9843 24.3239 17.9822C24.7091 17.9279 25.0865 18.1401 25.197 18.4825C25.2358 18.6028 25.2403 18.7255 25.2159 18.841C25.1622 19.0951 24.9683 19.3144 24.6911 19.3961L18.7453 21.1487C18.5032 21.2201 18.3344 21.4285 18.3235 21.6696C18.3125 21.9106 18.4616 22.1322 18.6962 22.2233L29.5821 26.4507C29.8192 26.5428 30.0044 26.7172 30.1036 26.942C30.2029 27.1667 30.2044 27.4149 30.1077 27.6406C30.011 27.8664 29.8279 28.0428 29.5919 28.1373C29.4739 28.1845 29.3498 28.2084 29.2255 28.2091C29.2237 28.2091 29.2219 28.2089 29.2201 28.2089C29.1909 28.2089 29.1618 28.2078 29.1326 28.2052C29.124 28.2044 29.1155 28.2027 29.1069 28.2017C29.0847 28.1992 29.0624 28.1967 29.0404 28.1927C29.0264 28.1901 29.0126 28.1862 28.9988 28.1831C28.9822 28.1793 28.9655 28.1761 28.9491 28.1715C28.9322 28.1667 28.9155 28.1604 28.8988 28.1547C28.8855 28.1502 28.8719 28.1464 28.8588 28.1414L21.6896 25.3573C21.3829 25.2382 21.033 25.3784 20.9079 25.6706C20.7828 25.9627 20.93 26.296 21.2368 26.4152L29.9284 29.7904C29.9877 29.8134 30.0438 29.8416 30.096 29.8744C30.2528 29.9728 30.3756 30.1131 30.45 30.2817C30.5369 30.4783 30.5488 30.6928 30.4857 30.8946C30.4766 30.9235 30.4661 30.9521 30.454 30.9803C30.4415 31.0094 30.4277 31.0376 30.4125 31.0648C30.3771 31.1281 30.3341 31.1853 30.286 31.2374C30.2561 31.2697 30.2242 31.2999 30.1903 31.3275C30.1849 31.3319 30.1799 31.3369 30.1744 31.3411C29.9556 31.5116 29.663 31.5849 29.3771 31.5299C29.3191 31.5187 29.2614 31.5028 29.2047 31.4808L28.3716 31.1574Z" fill="#3E3F53"/>
</svg>
