<svg width="16" height="16" viewBox="0 0 16 16" fill="none" xmlns="http://www.w3.org/2000/svg">
<g clip-path="url(#clip0)">
<path d="M12.6451 9.91174C12.3176 9.57067 11.9225 9.38832 11.5037 9.38832C11.0884 9.38832 10.6899 9.56729 10.3488 9.90836L9.28172 10.9721C9.19392 10.9248 9.10612 10.8809 9.0217 10.837C8.90013 10.7762 8.78532 10.7188 8.68739 10.658C7.68782 10.0232 6.77943 9.19583 5.90819 8.12535C5.48608 7.5918 5.20242 7.14267 4.99642 6.68679C5.27333 6.43352 5.52998 6.17012 5.77987 5.91685C5.87442 5.8223 5.96897 5.72437 6.06353 5.62982C6.77268 4.92067 6.77268 4.00215 6.06353 3.293L5.14163 2.3711C5.03695 2.26641 4.92889 2.15835 4.82758 2.05029C4.62496 1.84092 4.41222 1.6248 4.19272 1.42219C3.86516 1.098 3.47344 0.925781 3.06146 0.925781C2.64947 0.925781 2.251 1.098 1.91331 1.42219C1.90993 1.42556 1.90993 1.42556 1.90655 1.42894L0.758403 2.58722C0.326159 3.01947 0.0796448 3.54626 0.0256142 4.15748C-0.0554316 5.14354 0.234983 6.06206 0.457859 6.66315C1.00492 8.13886 1.82213 9.50651 3.04119 10.9721C4.52028 12.7382 6.29991 14.1329 8.33281 15.1156C9.1095 15.4836 10.1462 15.9193 11.3045 15.9936C11.3754 15.9969 11.4497 16.0003 11.5172 16.0003C12.2973 16.0003 12.9524 15.72 13.4657 15.1628C13.4691 15.1561 13.4758 15.1527 13.4792 15.1459C13.6548 14.9332 13.8574 14.7407 14.0702 14.5347C14.2154 14.3963 14.364 14.2511 14.5092 14.0991C14.8435 13.7513 15.0191 13.3461 15.0191 12.9307C15.0191 12.512 14.8401 12.1101 14.499 11.7724L12.6451 9.91174ZM13.8541 13.4676C13.8507 13.4676 13.8507 13.471 13.8541 13.4676C13.7224 13.6095 13.5873 13.7378 13.4421 13.8796C13.2226 14.089 12.9997 14.3085 12.7903 14.555C12.4493 14.9197 12.0474 15.0919 11.5206 15.0919C11.47 15.0919 11.4159 15.0919 11.3653 15.0885C10.3623 15.0244 9.43031 14.6327 8.73129 14.2983C6.81996 13.3731 5.14163 12.0595 3.74697 10.3946C2.59544 9.00673 1.82551 7.7235 1.31559 6.34572C1.00154 5.50487 0.886726 4.84975 0.93738 4.23178C0.971149 3.83668 1.12311 3.50912 1.40339 3.22883L2.55492 2.07731C2.72039 1.92197 2.89599 1.83755 3.06821 1.83755C3.28095 1.83755 3.45318 1.96587 3.56124 2.07393C3.56461 2.07731 3.56799 2.08068 3.57137 2.08406C3.77736 2.27655 3.97322 2.47578 4.17921 2.68853C4.2839 2.79659 4.39196 2.90465 4.50002 3.01609L5.42191 3.93799C5.77987 4.29594 5.77987 4.62687 5.42191 4.98483C5.32398 5.08276 5.22943 5.18069 5.1315 5.27524C4.84784 5.56566 4.57769 5.83581 4.2839 6.09921C4.27714 6.10596 4.27039 6.10934 4.26701 6.11609C3.9766 6.40651 4.03063 6.69017 4.09141 6.88265C4.09479 6.89278 4.09817 6.90291 4.10154 6.91304C4.3413 7.49387 4.67899 8.04093 5.19228 8.69267L5.19566 8.69605C6.12769 9.8442 7.11037 10.7391 8.19436 11.4246C8.33281 11.5124 8.47464 11.5833 8.60972 11.6508C8.73129 11.7116 8.8461 11.769 8.94403 11.8298C8.95754 11.8366 8.97105 11.8467 8.98455 11.8535C9.09937 11.9109 9.20743 11.9379 9.31887 11.9379C9.59915 11.9379 9.77475 11.7623 9.83216 11.7049L10.9871 10.55C11.1019 10.4352 11.2842 10.2967 11.497 10.2967C11.7063 10.2967 11.8786 10.4284 11.9832 10.5432C11.9866 10.5466 11.9866 10.5466 11.99 10.55L13.8507 12.4107C14.1985 12.7551 14.1985 13.1097 13.8541 13.4676Z" fill="#333333"/>
<path d="M8.64698 3.80609C9.53173 3.95468 10.3354 4.37342 10.977 5.01503C11.6187 5.65664 12.034 6.46035 12.186 7.3451C12.2231 7.56797 12.4156 7.72331 12.6351 7.72331C12.6621 7.72331 12.6858 7.71993 12.7128 7.71656C12.9627 7.67603 13.1281 7.43965 13.0876 7.18976C12.9053 6.11928 12.3987 5.14335 11.6254 4.37004C10.8521 3.59673 9.87618 3.09019 8.80569 2.90784C8.5558 2.86731 8.3228 3.03278 8.2789 3.2793C8.235 3.52581 8.39709 3.76557 8.64698 3.80609Z" fill="#333333"/>
<path d="M15.9816 7.05818C15.6811 5.29543 14.8504 3.6914 13.5739 2.41493C12.2974 1.13846 10.6934 0.307739 8.93064 0.00719432C8.68413 -0.0367055 8.45112 0.13214 8.40722 0.378654C8.3667 0.628546 8.53217 0.861552 8.78206 0.905452C10.3557 1.17223 11.7909 1.91852 12.9323 3.05654C14.0737 4.19794 14.8166 5.63312 15.0834 7.20676C15.1205 7.42964 15.313 7.58498 15.5325 7.58498C15.5595 7.58498 15.5832 7.5816 15.6102 7.57822C15.8567 7.54108 16.0255 7.30469 15.9816 7.05818Z" fill="#333333"/>
</g>
<defs>
<clipPath id="clip0">
<rect width="16" height="16" fill="white"/>
</clipPath>
</defs>
</svg>
