<svg width="14" height="14" viewBox="0 0 14 14" fill="none" xmlns="http://www.w3.org/2000/svg">
<path d="M11.0645 8.67265C10.7779 8.37422 10.4322 8.21466 10.0658 8.21466C9.70232 8.21466 9.35366 8.37126 9.05522 8.6697L8.12151 9.60046C8.04468 9.55909 7.96786 9.52068 7.89399 9.48226C7.78761 9.42908 7.68715 9.37885 7.60146 9.32566C6.72684 8.77016 5.932 8.04623 5.16967 7.10956C4.80032 6.6427 4.55211 6.24972 4.37187 5.85082C4.61416 5.62921 4.83873 5.39874 5.05738 5.17713C5.14012 5.09439 5.22285 5.0087 5.30559 4.92597C5.92609 4.30546 5.92609 3.50176 5.30559 2.88125L4.49893 2.07459C4.40733 1.98299 4.31278 1.88844 4.22413 1.79388C4.04684 1.61069 3.86069 1.42158 3.66863 1.24429C3.38201 0.960631 3.03926 0.809937 2.67877 0.809937C2.31829 0.809937 1.96962 0.960631 1.67414 1.24429C1.67119 1.24725 1.67119 1.24725 1.66823 1.2502L0.663603 2.2637C0.285389 2.64191 0.0696892 3.10286 0.0224125 3.63768C-0.0485026 4.50048 0.20561 5.30418 0.400626 5.83014C0.879303 7.12138 1.59436 8.31807 2.66104 9.60046C3.95525 11.1458 5.51242 12.3661 7.29121 13.226C7.97081 13.5481 8.87793 13.9292 9.89143 13.9942C9.95348 13.9972 10.0185 14.0001 10.0776 14.0001C10.7601 14.0001 11.3334 13.7549 11.7825 13.2674C11.7855 13.2614 11.7914 13.2585 11.7943 13.2526C11.948 13.0664 12.1253 12.898 12.3114 12.7178C12.4385 12.5966 12.5685 12.4696 12.6955 12.3366C12.9881 12.0323 13.1417 11.6777 13.1417 11.3142C13.1417 10.9478 12.9851 10.5962 12.6867 10.3007L11.0645 8.67265ZM12.1223 11.7841C12.1193 11.7841 12.1193 11.787 12.1223 11.7841C12.0071 11.9082 11.8889 12.0204 11.7618 12.1445C11.5698 12.3277 11.3747 12.5198 11.1915 12.7355C10.8931 13.0546 10.5415 13.2053 10.0805 13.2053C10.0362 13.2053 9.98894 13.2053 9.94462 13.2024C9.06704 13.1462 8.25152 12.8035 7.63987 12.5109C5.96746 11.7013 4.49893 10.5519 3.2786 9.09519C2.27101 7.88076 1.59732 6.75794 1.15114 5.55238C0.876348 4.81664 0.775885 4.24341 0.820207 3.70268C0.849755 3.35697 0.982721 3.07036 1.22797 2.82511L2.23555 1.81752C2.38034 1.6816 2.53399 1.60773 2.68468 1.60773C2.87084 1.60773 3.02153 1.72001 3.11608 1.81457C3.11904 1.81752 3.12199 1.82048 3.12495 1.82343C3.30519 1.99186 3.47657 2.16619 3.65681 2.35234C3.74841 2.44689 3.84296 2.54145 3.93752 2.63896L4.74418 3.44562C5.05738 3.75882 5.05738 4.04839 4.74418 4.3616C4.65849 4.44729 4.57575 4.53298 4.49006 4.61571C4.24186 4.86983 4.00548 5.10621 3.74841 5.33668C3.7425 5.34259 3.73659 5.34555 3.73364 5.35146C3.47952 5.60557 3.5268 5.85377 3.57999 6.0222C3.58294 6.03106 3.5859 6.03993 3.58885 6.04879C3.79864 6.55702 4.09412 7.03569 4.54325 7.60597L4.5462 7.60892C5.36173 8.61355 6.22157 9.39657 7.17006 9.9964C7.29121 10.0732 7.41531 10.1353 7.5335 10.1944C7.63987 10.2476 7.74034 10.2978 7.82603 10.351C7.83785 10.3569 7.84967 10.3657 7.86148 10.3717C7.96195 10.4219 8.0565 10.4455 8.15401 10.4455C8.39926 10.4455 8.55291 10.2919 8.60314 10.2416L9.61368 9.23111C9.71414 9.13064 9.8737 9.0095 10.0599 9.0095C10.243 9.0095 10.3937 9.12473 10.4853 9.2252C10.4883 9.22815 10.4883 9.22815 10.4913 9.23111L12.1193 10.8592C12.4237 11.1606 12.4237 11.4708 12.1223 11.7841Z" fill="#FACF5C"/>
<path d="M7.56614 3.33026C8.34029 3.46027 9.04354 3.82666 9.60495 4.38807C10.1664 4.94948 10.5298 5.65273 10.6628 6.42688C10.6953 6.6219 10.8637 6.75782 11.0558 6.75782C11.0794 6.75782 11.1001 6.75486 11.1237 6.75191C11.3424 6.71645 11.4872 6.50962 11.4517 6.29096C11.2921 5.35429 10.8489 4.50036 10.1723 3.82371C9.49562 3.14706 8.64168 2.70384 7.70501 2.54428C7.48636 2.50882 7.28248 2.65361 7.24406 2.86931C7.20565 3.08501 7.34748 3.2948 7.56614 3.33026Z" fill="#FACF5C"/>
<path d="M13.9838 6.17582C13.7208 4.63341 12.9939 3.22989 11.877 2.11297C10.7601 0.99606 9.35656 0.26918 7.81416 0.00620348C7.59846 -0.0322089 7.39458 0.115531 7.35617 0.331231C7.32071 0.549886 7.4655 0.753767 7.68415 0.792179C9.06109 1.02561 10.3169 1.67862 11.3156 2.67438C12.3143 3.6731 12.9644 4.92889 13.1978 6.30583C13.2303 6.50084 13.3987 6.63677 13.5908 6.63677C13.6144 6.63677 13.6351 6.63381 13.6587 6.63086C13.8744 6.59835 14.0222 6.39152 13.9838 6.17582Z" fill="#FACF5C"/>
</svg>
