<svg width="54" height="54" viewBox="0 0 54 54" fill="none" xmlns="http://www.w3.org/2000/svg">
<g clip-path="url(#clip0)">
<path d="M51.2222 24.0422L53.8129 20.9693C53.9541 20.8018 54.0195 20.5832 53.9936 20.3657L52.7901 10.2803C52.7535 9.97348 52.5415 9.71603 52.2473 9.6211C51.9533 9.5265 51.6309 9.6114 51.4218 9.839L45.9722 15.7752L36.013 16.7895C35.5784 16.8337 35.262 17.222 35.3062 17.6566C35.3505 18.0912 35.7395 18.408 36.1732 18.3634L46.4317 17.3186C46.6245 17.299 46.8032 17.2094 46.9342 17.0667L51.423 12.177L52.3818 20.2122L50.0834 22.9382L45.4327 26.0754C45.199 26.2332 45.0667 26.5034 45.0858 26.7848L45.4472 32.1113C45.4735 32.4978 45.7758 32.8084 46.1615 32.8451L49.4735 33.1605L51.171 37.482L50.3954 39.4805L48.1347 36.4636C47.9589 36.2291 47.6681 36.111 47.3783 36.1566L43.9443 36.6989C43.6612 36.7437 43.4245 36.9379 43.3254 37.2068L42.2127 40.2271L35.7907 41.5289C35.3625 41.6157 35.0859 42.0331 35.1727 42.4613C35.2487 42.8365 35.5786 43.0953 35.9471 43.0953C35.9992 43.0953 36.0521 43.0901 36.1051 43.0794L42.9596 41.6898C43.2285 41.6353 43.4499 41.4455 43.5447 41.188L44.6496 38.1891L47.1544 37.7935L49.9842 41.5696C50.1565 41.7995 50.4398 41.9182 50.7248 41.8789C51.0095 41.8398 51.2506 41.6494 51.3546 41.3815L52.7577 37.7665C52.8296 37.5813 52.8292 37.3759 52.7565 37.1911L50.7684 32.1298C50.6595 31.8524 50.4038 31.6599 50.1072 31.6316L46.9803 31.3339L46.6951 27.1321L51.0595 24.1881C51.1205 24.1472 51.1751 24.0981 51.2222 24.0422Z" fill="#3E3F53"/>
<path d="M32.321 42.2325L29.6991 42.764L23.4538 36.2116C23.2571 36.0052 22.9646 35.9205 22.6879 35.9903L18.1564 37.1322L16.1248 34.6318C15.991 34.4673 15.797 34.3633 15.5858 34.3431L7.99462 33.6201C7.77324 33.5989 7.55239 33.6723 7.38754 33.8223C7.22269 33.9722 7.12861 34.1847 7.12861 34.4076V36.0733L4.1256 39.1437L3.14137 34.8266L4.41606 31.4778C4.49295 31.2758 4.48388 31.051 4.39075 30.8559C4.29773 30.6607 4.12877 30.5122 3.92331 30.4449L1.73325 29.7266L4.39402 18.8547L9.41665 15.782L13.6783 17.7643C14.0745 17.9486 14.5449 17.7768 14.7291 17.3807C14.9134 16.9845 14.7417 16.5142 14.3455 16.3299L9.69931 14.1687C9.45916 14.0571 9.17882 14.073 8.95291 14.2111L3.29039 17.6754C3.11236 17.7843 2.98453 17.9593 2.93486 18.162L0.0223398 30.062C-0.0759571 30.4636 0.151539 30.873 0.544199 31.0018L2.6425 31.6898L1.57748 34.4876C1.52189 34.6335 1.51082 34.7926 1.54552 34.9448L2.90543 40.9097C2.96977 41.1919 3.18324 41.4166 3.46178 41.4952C3.74032 41.5736 4.03964 41.4939 4.24214 41.287L8.48515 36.9489C8.62975 36.8012 8.71064 36.6026 8.71064 36.3959V35.2775L15.106 35.8867L17.2467 38.5214C17.4406 38.7602 17.7556 38.8648 18.0538 38.7896L22.6269 37.6372L28.8554 44.1719C29.0062 44.3301 29.2139 44.4171 29.428 44.4171C29.4802 44.4171 29.5328 44.4119 29.5851 44.4014L32.6352 43.7831C33.0634 43.6963 33.34 43.2789 33.2532 42.8506C33.1666 42.4224 32.7496 42.1454 32.321 42.2325Z" fill="#3E3F53"/>
<path d="M33.043 14.6022C29.1603 14.6022 27.273 14.1493 25.275 13.6697C23.4093 13.2219 21.4842 12.7599 17.9287 12.7001V11.7971C17.9287 11.3603 17.5745 11.0061 17.1377 11.0061C16.7008 11.0061 16.3467 11.3603 16.3467 11.7971V30.1027C16.3467 30.5395 16.7008 30.8937 17.1377 30.8937C17.5745 30.8937 17.9287 30.5395 17.9287 30.1027V26.155C21.2867 26.2123 23.0484 26.6351 24.9058 27.0809C26.9054 27.5608 28.9731 28.057 33.043 28.057C33.4799 28.057 33.834 27.7029 33.834 27.266V15.3932C33.834 14.9562 33.4799 14.6022 33.043 14.6022ZM24.9058 15.208C26.7715 15.6558 28.6966 16.1178 32.252 16.1776V18.5869C28.8941 18.5296 27.1324 18.1068 25.275 17.661C23.4093 17.2132 21.4842 16.7512 17.9287 16.6914V14.2821C21.2867 14.3394 23.0484 14.7622 24.9058 15.208ZM25.275 25.5425C23.4093 25.0947 21.4842 24.6328 17.9287 24.573V22.1738C21.2866 22.231 23.0483 22.6539 24.9057 23.0996C25.1666 23.1622 25.4274 23.2248 25.6928 23.2864C25.7529 23.3003 25.813 23.3069 25.8722 23.3069C26.232 23.3069 26.5573 23.0599 26.6421 22.6945C26.7408 22.2689 26.4759 21.8439 26.0503 21.7451C25.789 21.6845 25.532 21.6228 25.2749 21.5611C23.4092 21.1134 21.4842 20.6514 17.9288 20.5915V18.2734C21.2868 18.3307 23.0485 18.7535 24.9059 19.1993C26.7716 19.6472 28.6968 20.1091 32.2521 20.1689V22.4869C31.2461 22.4695 30.3319 22.418 29.4759 22.331C29.0404 22.2867 28.6531 22.6033 28.6088 23.0379C28.5646 23.4725 28.8811 23.8606 29.3156 23.9049C30.2239 23.9973 31.1907 24.0515 32.2521 24.0693V26.4683C28.8939 26.4111 27.1324 25.9883 25.275 25.5425Z" fill="#3E3F53"/>
</g>
<defs>
<clipPath id="clip0">
<rect width="54" height="54" fill="white"/>
</clipPath>
</defs>
</svg>
