<svg width="17" height="17" viewBox="0 0 17 17" fill="none" xmlns="http://www.w3.org/2000/svg">
<path d="M16.8392 16.0751L12.4501 11.7561C13.5994 10.5074 14.3056 8.85588 14.3056 7.03858C14.3051 3.15103 11.103 0 7.15279 0C3.20255 0 0.000488281 3.15103 0.000488281 7.03858C0.000488281 10.9261 3.20255 14.0772 7.15279 14.0772C8.85956 14.0772 10.425 13.4868 11.6546 12.5054L16.0608 16.8414C16.2754 17.0529 16.624 17.0529 16.8387 16.8414C17.0539 16.6299 17.0539 16.2866 16.8392 16.0751ZM7.15279 12.9942C3.81045 12.9942 1.10097 10.3278 1.10097 7.03858C1.10097 3.74936 3.81045 1.08293 7.15279 1.08293C10.4951 1.08293 13.2046 3.74936 13.2046 7.03858C13.2046 10.3278 10.4951 12.9942 7.15279 12.9942Z" fill="#FAD163"/>
</svg>
