<svg width="21" height="21" viewBox="0 0 21 21" fill="none" xmlns="http://www.w3.org/2000/svg">
<path d="M20.4229 3.9846C20.0336 3.53984 19.4786 3.29487 18.8603 3.29487H3.91299L3.76254 2.16694C3.6004 0.951851 2.75446 0 1.83657 0H0.738281C0.39846 0 0.123047 0.275414 0.123047 0.615234C0.123047 0.955055 0.39846 1.23047 0.738281 1.23047H1.83657C2.03396 1.23047 2.45197 1.64783 2.54281 2.32956L4.30392 15.5382C4.38146 16.1204 4.68059 16.6655 5.14618 17.0731C5.49145 17.3754 5.89952 17.5765 6.32698 17.6606C6.15282 17.9809 6.05381 18.3478 6.05381 18.7373C6.05381 19.985 7.06895 21 8.31656 21C9.56417 21 10.5793 19.985 10.5793 18.7373C10.5793 18.3655 10.4886 18.0148 10.329 17.7051H13.5529C13.3934 18.0148 13.3027 18.3655 13.3027 18.7373C13.3027 19.985 14.3178 21 15.5654 21C16.813 21 17.8282 19.985 17.8282 18.7373C17.8282 18.3655 17.7375 18.0148 17.5779 17.7051H19.1899C19.5295 17.7051 19.8051 17.4296 19.8051 17.0899C19.8051 16.7501 19.5295 16.4747 19.1899 16.4747H6.77895C6.17782 16.4747 5.60296 15.9713 5.52349 15.3754L5.39484 14.4101H10.1833C10.1834 14.4101 10.1836 14.4103 10.1837 14.4103C10.1839 14.4103 10.1841 14.4101 10.1844 14.4101H14.1369C14.1371 14.4101 14.1373 14.4103 14.1376 14.4103C14.1377 14.4103 14.1377 14.4101 14.1379 14.4101H17.5424C18.1297 14.4101 18.7095 14.1856 19.1751 13.7782C19.6407 13.3706 19.9398 12.8254 20.0174 12.2432L20.8999 5.62459C20.9816 5.01176 20.8122 4.42937 20.4229 3.9846ZM9.34884 18.7373C9.34884 19.3065 8.88581 19.7695 8.31656 19.7695C7.74747 19.7695 7.28428 19.3065 7.28428 18.7373C7.28428 18.1682 7.74747 17.7051 8.31656 17.7051C8.88581 17.7051 9.34884 18.1682 9.34884 18.7373ZM16.5977 18.7373C16.5977 19.3065 16.1347 19.7695 15.5654 19.7695C14.9962 19.7695 14.5331 19.3065 14.5331 18.7373C14.5331 18.1682 14.9962 17.7051 15.5654 17.7051C16.1347 17.7051 16.5977 18.1682 16.5977 18.7373ZM19.497 4.79514C19.6494 4.96914 19.7144 5.20578 19.6801 5.46181L19.3102 8.23725H15.124L15.3714 4.52534H18.8603C19.1187 4.52534 19.3448 4.62115 19.497 4.79514ZM10.7599 13.1796L10.5123 9.46772H13.8088L13.5613 13.1796H10.7599ZM10.4303 8.23725L10.1829 4.52534H14.1382L13.8908 8.23725H10.4303ZM8.94974 4.52534L9.19711 8.23725H4.5718L4.07689 4.52534H8.94974ZM4.73586 9.46772H9.27914L9.52668 13.1796H5.23077L4.73586 9.46772ZM17.5424 13.1796H14.7945L15.042 9.46772H19.1461L18.7978 12.0805C18.7183 12.6764 18.1433 13.1796 17.5424 13.1796Z" fill="#333333"/>
</svg>
