<svg width="31" height="31" viewBox="0 0 31 31" fill="none" xmlns="http://www.w3.org/2000/svg">
<g clip-path="url(#clip0)">
<path d="M6.26282 30.2683C6.14796 30.2683 6.0331 30.2328 5.93654 30.1623C5.76564 30.038 5.68019 29.8277 5.71625 29.6196L7.43142 19.6216L0.167361 12.5418C0.0164314 12.3942 -0.0379477 12.1739 0.0269744 11.9736C0.0924513 11.7727 0.266132 11.6262 0.475325 11.5957L10.5133 10.1369L15.0029 1.0406C15.0961 0.850828 15.2892 0.730972 15.5001 0.730972C15.7115 0.730972 15.9046 0.850828 15.9972 1.0406L20.4863 10.1369L30.5248 11.5957C30.734 11.6262 30.9071 11.7722 30.9731 11.9736C31.0381 12.1739 30.9842 12.3947 30.8328 12.5418L23.5687 19.6227L25.2833 29.6202C25.3188 29.8283 25.2334 30.0386 25.063 30.1629C24.8921 30.2883 24.6652 30.3044 24.4782 30.205L15.5001 25.4851L6.52084 30.205C6.43983 30.2472 6.35105 30.2683 6.26282 30.2683ZM1.74713 12.5318L8.41468 19.0312C8.54508 19.1583 8.60501 19.3425 8.57393 19.5223L6.99971 28.6991L15.242 24.3665C15.4035 24.281 15.5961 24.281 15.7586 24.3665L23.9999 28.6991L22.4262 19.5223C22.3951 19.3425 22.455 19.1588 22.5854 19.0312L29.253 12.5318L20.0391 11.1929C19.8582 11.1668 19.7022 11.053 19.6212 10.8893L15.5001 2.54047L11.3789 10.8899C11.2979 11.0536 11.142 11.1673 10.9611 11.1934L1.74713 12.5318Z" fill="#88B131"/>
</g>
<defs>
<clipPath id="clip0">
<rect width="31" height="31" fill="white"/>
</clipPath>
</defs>
</svg>
