<svg width="41" height="52" viewBox="0 0 41 52" fill="none" xmlns="http://www.w3.org/2000/svg">
<path d="M40.9755 42.642L38.6663 13.5437C38.5223 11.669 36.9369 10.2004 35.0568 10.2004H30.4955V9.99541C30.4955 4.48389 26.0116 0 20.5001 0C14.9886 0 10.5047 4.48389 10.5047 9.99541V10.2004H5.94357C4.06334 10.2004 2.47781 11.6689 2.3344 13.5397L0.024433 42.646C-0.154329 44.9765 0.654139 47.2966 2.24239 49.0113C3.83064 50.726 6.08213 51.7096 8.41947 51.7096H32.5807C34.9179 51.7096 37.1695 50.7261 38.7579 49.0113C40.3461 47.2965 41.1545 44.9765 40.9755 42.642ZM13.5336 9.99541C13.5336 6.15405 16.6589 3.02885 20.5001 3.02885C24.3414 3.02885 27.4667 6.15415 27.4667 9.99541V10.2004H13.5336V9.99541ZM36.5357 46.9532C35.5037 48.0672 34.0992 48.6808 32.5807 48.6808H8.41957C6.901 48.6808 5.49656 48.0672 4.46459 46.9532C3.43272 45.8392 2.92835 44.3917 3.04429 42.8816L5.35406 13.7753C5.37749 13.469 5.63644 13.2293 5.94357 13.2293H10.5047V16.9595C10.5047 17.7959 11.1828 18.474 12.0191 18.474C12.8555 18.474 13.5336 17.7959 13.5336 16.9595V13.2293H27.4667V16.9595C27.4667 17.7959 28.1448 18.474 28.9811 18.474C29.8174 18.474 30.4955 17.7959 30.4955 16.9595V13.2293H35.0568C35.3638 13.2293 35.6228 13.4691 35.6466 13.7793L37.9559 42.8776C38.072 44.3917 37.5675 45.8391 36.5357 46.9532Z" fill="#88B131"/>
<path d="M27.3217 25.6816C26.7304 25.0902 25.7715 25.0902 25.1802 25.6816L18.4179 32.4439L15.8177 29.8436C15.2264 29.2522 14.2674 29.2522 13.676 29.8436C13.0846 30.4351 13.0846 31.3939 13.676 31.9853L17.3471 35.6564C17.6428 35.9521 18.0304 36.1001 18.4178 36.1001C18.8052 36.1001 19.193 35.9522 19.4886 35.6564L27.3216 27.8234C27.9131 27.2319 27.9131 26.273 27.3217 25.6816Z" fill="#88B131"/>
</svg>
