<svg width="26" height="16" viewBox="0 0 26 16" fill="none" xmlns="http://www.w3.org/2000/svg">
<path d="M21.5746 8.697C21.1543 8.16617 21.2745 7.93 21.5746 7.4555C21.58 7.45008 25.0499 2.65525 25.4074 1.02917L25.4096 1.02808C25.5873 0.4355 25.4096 0 24.5505 0H21.7078C20.9842 0 20.6505 0.37375 20.4718 0.791917C20.4718 0.791917 19.0244 4.25642 16.9769 6.50217C16.3161 7.15108 16.0106 7.35908 15.6498 7.35908C15.4722 7.35908 15.1959 7.15108 15.1959 6.5585V1.02808C15.1959 0.317417 14.9933 0 14.3942 0H9.92442C9.4705 0 9.20075 0.3315 9.20075 0.64025C9.20075 1.31408 10.2245 1.469 10.3307 3.36483V7.47825C10.3307 8.37958 10.1671 8.54533 9.80417 8.54533C8.83783 8.54533 6.49242 5.06675 5.1025 1.0855C4.82192 0.313083 4.54783 0.00108325 3.81875 0.00108325H0.975C0.163583 0.00108325 0 0.374833 0 0.793C0 1.53183 0.966333 5.20542 4.49367 10.0588C6.8445 13.3716 10.1552 15.1667 13.1668 15.1667C14.9771 15.1667 15.1981 14.768 15.1981 14.0823C15.1981 10.9168 15.0345 10.6178 15.9413 10.6178C16.3616 10.6178 17.0853 10.8258 18.7752 12.4237C20.7068 14.3184 21.0243 15.1667 22.1054 15.1667H24.9481C25.7584 15.1667 26.169 14.768 25.9328 13.9815C25.3923 12.3273 21.7393 8.9245 21.5746 8.697Z" fill="#FAD163"/>
</svg>
